<?xml version="1.0" standalone="no"?>
<!DOCTYPE svg PUBLIC "-//W3C//DTD SVG 20010904//EN"
 "http://www.w3.org/TR/2001/REC-SVG-20010904/DTD/svg10.dtd">
<svg version="1.0" xmlns="http://www.w3.org/2000/svg"
 width="104.000000pt" height="104.000000pt" viewBox="0 0 104.000000 104.000000"
 preserveAspectRatio="xMidYMid meet">
<metadata>
Created by potrace 1.11, written by Peter Selinger 2001-2013
</metadata>
<g transform="translate(0.000000,104.000000) scale(0.100000,-0.100000)"
fill="#000000" stroke="none">
<path d="M560 960 l0 -80 40 0 40 0 0 -304 0 -304 -56 -56 c-52 -52 -60 -56
-103 -56 -44 0 -50 4 -111 65 -35 36 -68 65 -72 65 -7 0 -53 -44 -92 -88 -19
-22 -19 -22 60 -101 43 -43 89 -83 101 -90 32 -16 198 -14 231 3 30 15 203
191 201 203 -1 5 -1 155 0 336 l1 327 40 0 40 0 0 80 0 80 -160 0 -160 0 0
-80z"/>
</g>
</svg>
